<svg xmlns="http://www.w3.org/2000/svg" width="612" height="33.49805" viewBox="0 0 612 33.49805">
  <title>broche_1</title>
  <g>
    <g>
      <path d="M306.77523,24.29072a3.53543,3.53543,0,0,1-.09456.54809,5.79779,5.79779,0,0,1-5.65544,4.30646,5.9485,5.9485,0,0,1-5.70739-4.26961q-.03144-.11654-.054-.23555a3.36342,3.36342,0,0,1,.00984-1.19,5.14143,5.14143,0,0,1,.22573-.93553l5.15034-12.30936.00148-.00352a3.84707,3.84707,0,0,0,.25078-1.24535V.33418a.33046.33046,0,0,0-.63569-.12978l-9.13,21.82158a7.90736,7.90736,0,0,0-.35248,1.2541,5.81453,5.81453,0,0,0-.14355,1.319,5.55788,5.55788,0,0,0,.18731,1.33641,10.5454,10.5454,0,0,0,10.12208,7.56257,10.413,10.413,0,0,0,7.84712-3.52733.44622.44622,0,0,0,.07471-.45879Z"/>
      <path d="M301.69427.33416V9.2224a2.34892,2.34892,0,0,0,.2385.96926l.00843.0197,7.478,18.61522a.33165.33165,0,0,0,.58547.05864,9.8851,9.8851,0,0,0,1.34189-3.00809,6.07357,6.07357,0,0,0-.28214-3.79459L302.3319.20914A.33046.33046,0,0,0,301.69427.33416Z" fill="#239c8d"/>
      <path d="M326.73439,7.3612l.00913-.00135a6.79957,6.79957,0,0,0-.4997-1.69563c-.01787-.04367-.03122-.08934-.04978-.13267l-.18706-.406a8.81937,8.81937,0,0,0-1.18978-1.80023c-.036-.04378-.06884-.08731-.10625-.13119-.02779-.03262-.05528-.0599-.08287-.0899A9.49594,9.49594,0,0,0,317.58392.00508H304.71344a.33349.33349,0,0,0-.306.46075l1.6,3.923a1.1728,1.1728,0,0,0,1.08291.73668h10.8557a4.47263,4.47263,0,0,1,1.77726.49919c.02219.01227.045.02363.067.0363.03181.01795.06343.03737.09505.05653a3.71257,3.71257,0,0,1,.72809.57883,3.60363,3.60363,0,0,1,1.01677,2.23643l.0004.36759a4.00439,4.00439,0,0,1-.466,1.68874,3.86171,3.86171,0,0,1-1.74251,1.56358c-.06225.02772-.12323.05612-.189.08187a4.12556,4.12556,0,0,1-1.5258.29462h-6.62211a1.19383,1.19383,0,0,0-1.08289,1.65507l2.24055,5.49329V18.18576a.84386.84386,0,0,1,.85613-.82907h4.958a9.47337,9.47337,0,0,0,1.89716-.19837l.00128.00727s.15436-.03083.40062-.09463c.101-.02522.20041-.05406.30017-.08249.11616-.03356.24116-.07143.37559-.11541.06215-.02053.12656-.036.188-.05778V16.8094c.13492-.0468.27553-.09926.41938-.15622v.00746c.036-.01483.06971-.034.10555-.04927a7.112,7.112,0,0,0,1.31459-.69137l.00855-.00772a8.29471,8.29471,0,0,0,3.80237-7.28117A8.182,8.182,0,0,0,326.73439,7.3612Z" fill="#239c8d"/>
      <path d="M300.902,14.35989,297.458,22.59122a2.27669,2.27669,0,0,0-.11481,1.46926A3.84205,3.84205,0,0,0,300.902,26.8266Z"/>
    </g>
    <g>
      <polygon points="0 13.513 0 19.985 288.918 19.985 291.625 13.513 0 13.513"/>
      <path d="M612,13.513H328.70459a11.03937,11.03937,0,0,1-2.30957,3.347,11.1418,11.1418,0,0,1-1.70508,1.37793c-.02051.01465-.04.02832-.06055.041a9.642,9.642,0,0,1-1.72656.92089c-.0664.03125-.13183.06055-.19824.08789-.07813.03125-.15723.05957-.2373.084-.043.0166-.25.09765-.3125.11914-.082.0293-.166.05469-.251.0791-.16406.05371-.32227.10156-.46973.14356-.11328.0332-.248.07128-.38476.10546-.32032.083-.53125.125-.53125.125-.07227.01465-.14551.02539-.21778.03418-.01562.00293-.03174.00379-.04736.00672H612Z" fill="#239c8d"/>
    </g>
  </g>
</svg>
