<svg xmlns="http://www.w3.org/2000/svg" width="1.13cm" height="0.92cm" viewBox="0 0 32.15 26.12">
  <title>001-twitter</title>
  <path d="M277,240.09a13.63,13.63,0,0,1-3.8,1,6.5,6.5,0,0,0,2.9-3.64,13.14,13.14,0,0,1-4.18,1.6,6.59,6.59,0,0,0-11.4,4.5,6.73,6.73,0,0,0,.15,1.51,18.65,18.65,0,0,1-13.58-6.9,6.58,6.58,0,0,0,2,8.81,6.56,6.56,0,0,1-3-.81v.07a6.62,6.62,0,0,0,5.28,6.48,6.38,6.38,0,0,1-1.72.22,5.7,5.7,0,0,1-1.25-.12,6.67,6.67,0,0,0,6.16,4.6,13.37,13.37,0,0,1-9.75,2.72A18.57,18.57,0,0,0,255,263.12c12.13,0,18.76-10,18.76-18.75,0-.29,0-.58,0-.85A13.3,13.3,0,0,0,277,240.09Z" transform="translate(-244.85 -237)" fill="#fff"/>
</svg>
