<svg xmlns="http://www.w3.org/2000/svg" width="0.5cm" height="0.92cm" viewBox="0 0 14.13 26.14">
  <title>002-facebook-logo</title>
  <path d="M54.59,35H51.21c-3.81,0-6.27,2.53-6.27,6.44v3H41.53a.53.53,0,0,0-.53.53v4.3a.53.53,0,0,0,.53.53h3.41V60.6a.53.53,0,0,0,.53.53h4.45a.53.53,0,0,0,.53-.53V49.75h4a.53.53,0,0,0,.54-.53v-4.3a.52.52,0,0,0-.16-.37.53.53,0,0,0-.38-.16h-4V41.88c0-1.21.29-1.82,1.86-1.82h2.28a.53.53,0,0,0,.54-.53v-4A.54.54,0,0,0,54.59,35Z" transform="translate(-41 -34.99)" fill="#fff"/>
</svg>
