<svg xmlns="http://www.w3.org/2000/svg" width="0.92cm" height="0.92cm" viewBox="0 0 26.14 26.14">
  <title>003-instagram</title>
  <path d="M260.9,242.93h-9.8a8.17,8.17,0,0,0-8.17,8.17v9.8a8.17,8.17,0,0,0,8.17,8.17h9.8a8.17,8.17,0,0,0,8.17-8.17v-9.8A8.17,8.17,0,0,0,260.9,242.93Zm5.72,18a5.73,5.73,0,0,1-5.72,5.72h-9.8a5.73,5.73,0,0,1-5.72-5.72v-9.8a5.73,5.73,0,0,1,5.72-5.72h9.8a5.73,5.73,0,0,1,5.72,5.72Z" transform="translate(-242.93 -242.93)" fill="#fff"/>
  <path d="M256,249.47a6.53,6.53,0,1,0,6.53,6.53A6.53,6.53,0,0,0,256,249.47Zm0,10.61a4.08,4.08,0,1,1,4.08-4.08A4.08,4.08,0,0,1,256,260.08Z" transform="translate(-242.93 -242.93)" fill="#fff"/>
  <circle cx="20.09" cy="6.04" r="0.87" fill="#fff"/>
</svg>
