<svg xmlns="http://www.w3.org/2000/svg" width="510" height="510" viewBox="0 0 510 510">
  <title>Asset 3</title>
  <path d="M459,0H51A51.14994,51.14994,0,0,0,0,51V459a51.14994,51.14994,0,0,0,51,51H459a51.14995,51.14995,0,0,0,51-51V51A51.14994,51.14994,0,0,0,459,0ZM153,433.5H76.5V204H153ZM114.75,160.65a45.9,45.9,0,1,1,45.9-45.9A45.70914,45.70914,0,0,1,114.75,160.65ZM433.5,433.5H357V298.35c0-20.399-17.85-38.25-38.25-38.25s-38.25,17.851-38.25,38.25V433.5H204V204h76.5v30.6c12.75-20.4,40.8-35.7,63.75-35.7,48.45,0,89.25,40.8,89.25,89.25Z" fill="#fff"/>
</svg>
