<svg xmlns="http://www.w3.org/2000/svg" width="512" height="352" viewBox="0 0 512 352">
  <title>Asset 2</title>
  <path d="M490.24,33.92C476.352,9.216,461.28,4.672,430.592,2.944,399.936.864,322.848,0,256.064,0,189.152,0,112.032.864,81.408,2.912,50.784,4.672,35.68,9.184,21.664,33.92,7.36,58.592,0,101.088,0,175.904v.256c0,74.496,7.36,117.312,21.664,141.728,14.016,24.704,29.088,29.184,59.712,31.264C112.032,350.944,189.152,352,256.064,352c66.784,0,143.872-1.056,174.56-2.816,30.688-2.08,45.76-6.56,59.648-31.264C504.704,293.504,512,250.688,512,176.192v-.256C512,101.088,504.704,58.592,490.24,33.92ZM192,272V80l160,96Z" fill="#fff"/>
</svg>
